<?xml version="1.0" encoding="UTF-8"?>
<svg xmlns="http://www.w3.org/2000/svg" version="1.1" xmlns:xlink="http://www.w3.org/1999/xlink" viewBox="0 0 400 400">
  <defs>
    <style>
      .cls-1 {
        fill: #040404;
      }

      .cls-2 {
        fill: url(#linear-gradient);
      }
    </style>
    <linearGradient id="linear-gradient" x1="13.1" y1="113.6" x2="39.1" y2="113.6" gradientUnits="userSpaceOnUse">
      <stop offset="0" stop-color="#e9b121"/>
      <stop offset="1" stop-color="#f8f07e"/>
    </linearGradient>
  </defs>
  <!-- Generator: Adobe Illustrator 28.6.0, SVG Export Plug-In . SVG Version: 1.2.0 Build 709)  -->
  <g>
    <g id="Layer_1">
      <g>
        <path class="cls-1" d="M170.2,252.8c-18.1,0-36.2,0-54.3,0q-1.9,0-1.9-1.9c0-6.9,0-13.8,0-20.8,0-1.2.4-1.4,1.5-1.4,35.5,0,70.9,0,106.4,0,5.2,0,9.5-3.9,9.8-8.7.3-3.5-1.8-7.5-5.3-9-2.3-1-4.6-1.9-6.9-2.8-14.2-5.4-28.3-10.8-42.5-16.2-7-2.7-14.1-5.1-20.9-8.1-11.1-4.8-17.9-13.4-19.8-25.4-2-12.6,2.2-23.1,11.9-31.2,6.3-5.2,13.7-7.5,21.8-7.5,24.6,0,49.1,0,73.7,0,1.1,0,1.4.3,1.4,1.4,0,7.1,0,14.3,0,21.4,0,1.2-.3,1.4-1.4,1.4-24.7,0-49.4,0-74.2,0-4.1,0-7.2,1.9-8.8,5.6-1.6,3.6-.9,7.1,1.8,10.1,1,1.1,2.3,1.9,3.7,2.4,6.3,2.4,12.6,4.8,18.8,7.2,12.5,4.8,25,9.5,37.5,14.3,5,1.9,10.2,3.5,15,6,10,5.2,16,13.4,17.9,24.5,2.4,14.3-4.9,28.2-17.5,34.7-4.7,2.4-9.7,3.8-15,3.8-17.6,0-35.2,0-52.8,0,0,0,0,0,0,0Z"/>
        <path class="cls-1" d="M315.4,120c11.8,0,23.5-.1,35.3,0,14.9.2,28,10.8,31.5,25.3,4,16.5-4.6,33-20.4,39.2-14.6,5.7-29.3,11.2-44,16.8-5,1.9-9.9,3.8-14.9,5.7-1.5.6-2.2,1.5-2.2,3.1,0,4.6,0,9.3,0,13.9,0,9.2-.1,18.4-.2,27.6,0,.8-.2,1.1-1,1.1-7.3,0-14.7-.2-22-.2-.9,0-1.1-.3-1.1-1.1.1-14.3,0-28.6.4-42.9.4-10.9,6-18.9,16-23.3,7.6-3.3,15.5-6,23.2-9,10.4-4,20.9-8,31.3-11.9,2-.8,4.1-1.5,6-2.3,4.3-1.8,6.5-6.1,5.6-10.5-.9-4.2-4.7-7.3-9.2-7.3-23.7,0-47.3,0-71,0q-2.1,0-2.1-2.1c0-6.9,0-13.8,0-20.8,0-1.1.3-1.3,1.3-1.3,12.5,0,25,0,37.5,0,0,0,0,0,0,0Z"/>
        <path class="cls-1" d="M47,194.2c0-10.8,0-21.7,0-32.5,0-5.6,0-11.2.1-16.9.2-10.3,7.2-20.2,16.8-24,1.7-.7,3.5-1,5.3-1,15,0,30.1,0,45.1,0,1.1,0,1.4.3,1.4,1.4,0,7.2,0,14.3,0,21.5,0,1.1-.3,1.3-1.3,1.3-13.8,0-27.5,0-41.3,0-1.7,0-1.9.3-1.9,2,0,0,0,0,0,.1,0,26.7-.1,53.5-.2,80.2,0,.4,0,.8,0,1.2.1,1,.6,1.5,1.7,1.5,3,0,6.1,0,9.1,0,.8,0,1.1.1,1.1,1,0,7.3,0,14.7,0,22,0,.9-.3,1.1-1.1,1.1-4.9,0-9.8,0-14.8,0-1.9,0-3.6-1-5.3-1.8-9.6-5.2-14.7-13.2-14.9-24.2-.1-11,0-21.9,0-32.9Z"/>
        <path class="cls-2" d="M39.1,113.6c0,7.2-5.8,13-13,13-7.1,0-13-6-12.9-13.2.1-7.1,5.8-12.8,13-12.8,7.3,0,13,5.7,13,13Z"/>
      </g>
    </g>
  </g>
</svg>