<?xml version="1.0" encoding="UTF-8"?>
<svg id="Layer_1" xmlns="http://www.w3.org/2000/svg" xmlns:xlink="http://www.w3.org/1999/xlink" viewBox="0 0 457.14 286.55">
  <defs>
    <style>
      .cls-1 {
        fill: #111212;
      }

      .cls-2 {
        fill: #0f0f0f;
      }

      .cls-3 {
        fill: #121212;
      }

      .cls-4 {
        fill: #141515;
      }

      .cls-5 {
        fill: #040404;
      }

      .cls-6 {
        fill: #111;
      }

      .cls-7 {
        fill: url(#linear-gradient);
      }

      .cls-8 {
        fill: #101111;
      }

      .cls-9 {
        fill: #050505;
      }
    </style>
    <linearGradient id="linear-gradient" x1="29.45" y1="50.41" x2="58.37" y2="50.41" gradientUnits="userSpaceOnUse">
      <stop offset="0" stop-color="#e9b121"/>
      <stop offset="1" stop-color="#f8f07e"/>
    </linearGradient>
  </defs>
  <path class="cls-5" d="M204.62,205.68c-20.17,0-40.34,0-60.51,0q-2.08,0-2.08-2.14c0-7.71.04-15.43-.04-23.14-.01-1.33.4-1.57,1.63-1.57,39.55.01,79.1-.05,118.66.02,5.77.01,10.56-4.32,10.96-9.68.3-3.94-2.03-8.33-5.88-10.07-2.53-1.14-5.13-2.12-7.72-3.11-15.79-6.02-31.58-12.01-47.37-18.02-7.79-2.96-15.69-5.66-23.32-8.99-12.36-5.39-20-14.89-22.11-28.29-2.2-14,2.4-25.72,13.27-34.81,7-5.85,15.26-8.38,24.35-8.38,27.38.01,54.75.01,82.13-.02,1.23,0,1.55.3,1.54,1.53-.06,7.95-.06,15.89,0,23.84.01,1.29-.34,1.61-1.62,1.6-27.56-.04-55.12-.03-82.68-.03-4.61,0-8.01,2.08-9.82,6.25-1.77,4.06-.99,7.91,1.98,11.25,1.14,1.28,2.59,2.08,4.17,2.68,7.01,2.67,14.01,5.35,21.02,8.02,13.93,5.31,27.86,10.61,41.78,15.94,5.62,2.15,11.4,3.91,16.75,6.71,11.12,5.83,17.85,14.95,19.91,27.37,2.64,15.99-5.49,31.45-19.46,38.74-5.21,2.72-10.77,4.23-16.68,4.23-19.61,0-39.23,0-58.84,0,0,.02,0,.04,0,.05Z"/>
  <path class="cls-5" d="M366.51,57.58c13.11,0,26.21-.14,39.32.04,16.6.23,31.2,12.07,35.14,28.19,4.48,18.37-5.08,36.84-22.73,43.67-16.32,6.31-32.69,12.48-49.04,18.71-5.54,2.11-11.06,4.24-16.61,6.34-1.63.61-2.45,1.7-2.45,3.46-.02,5.16-.07,10.31-.1,15.47-.08,10.27-.17,20.53-.22,30.8,0,.87-.17,1.22-1.13,1.21-8.18-.1-16.35-.17-24.53-.19-1,0-1.19-.31-1.18-1.25.14-15.93-.09-31.88.46-47.8.42-12.11,6.67-21.04,17.79-25.94,8.46-3.73,17.25-6.72,25.89-10.02,11.63-4.44,23.26-8.87,34.9-13.31,2.25-.86,4.52-1.67,6.74-2.59,4.75-1.98,7.3-6.8,6.27-11.75-.98-4.73-5.27-8.16-10.27-8.16-26.4,0-52.8,0-79.19,0q-2.31,0-2.31-2.37c0-7.71.03-15.43-.03-23.14,0-1.17.33-1.44,1.47-1.44,13.94.04,27.88.03,41.83.03,0,.02,0,.04,0,.06Z"/>
  <path class="cls-5" d="M67.28,140.36c0-12.08-.09-24.16.04-36.24.07-6.27.07-12.53.17-18.8.18-11.52,7.98-22.55,18.69-26.73,1.94-.76,3.85-1.1,5.94-1.1,16.78.05,33.55.04,50.33,0,1.27,0,1.52.36,1.51,1.56-.05,7.99-.06,15.98,0,23.98,0,1.19-.35,1.45-1.48,1.45-15.34-.04-30.67-.03-46.01-.03-1.85,0-2.13.29-2.15,2.18,0,.05,0,.09,0,.14-.07,29.82-.14,59.64-.21,89.47,0,.46-.02.93.05,1.39.16,1.09.65,1.67,1.94,1.63,3.39-.09,6.78-.01,10.18-.05.85-.01,1.2.14,1.19,1.12-.05,8.18-.04,16.36,0,24.53,0,1.01-.31,1.22-1.26,1.21-5.48-.04-10.97,0-16.45-.03-2.16-.02-4.04-1.07-5.86-2.04-10.75-5.76-16.41-14.77-16.57-26.98-.16-12.22-.03-24.44-.03-36.66Z"/>
  <path class="cls-7" d="M58.37,50.43c-.02,8.05-6.49,14.49-14.55,14.46-7.95-.03-14.48-6.7-14.37-14.68.11-7.96,6.5-14.26,14.46-14.26,8.13,0,14.47,6.36,14.46,14.48Z"/>
  <path class="cls-3" d="M279.91,257.45c-4.77,0-8.18-3.4-8.14-8.13.04-4.63,3.48-8.05,8.12-8.07,4.72-.02,8.19,3.41,8.2,8.12.02,4.72-3.38,8.07-8.19,8.08ZM275.57,249.69c0,.16,0,.62.07,1.08.29,2.01,1.67,3.41,3.6,3.69,2.04.3,3.85-.55,4.58-2.36.74-1.82.76-3.72-.06-5.55-.65-1.44-1.81-2.18-3.4-2.26-3.09-.16-4.79,1.63-4.79,5.39Z"/>
  <path class="cls-2" d="M251.47,250.55c1.71,1.96,2.74,4.24,4.29,6.59-1.39,0-2.51.03-3.63-.01-.56-.02-.86-.46-1.12-.93-.72-1.3-1.46-2.58-2.22-3.86-.18-.31-.41-.62-.68-.85-.39-.33-.93-.28-1.33-.12-.39.16-.18.66-.19,1.01-.02,1.3-.04,2.6,0,3.9.02.67-.24.85-.89.89-2.78.15-2.78.18-2.78-2.59,0-4.09.02-8.18-.02-12.26,0-.86.2-1.14,1.07-1.07,2.03.15,4.08-.17,6.11.23,2.06.4,3.69,1.23,4.11,3.52.43,2.33-.39,4.08-2.39,5.31-.12.07-.22.17-.34.25ZM247.79,244.03c-1.05-.29-1.33.31-1.23,1.42.08.88.01,1.76.02,2.65,0,.32-.06.69.44.69,1.15,0,2.38.23,3.22-.84.61-.78.73-1.69.31-2.62-.51-1.12-1.51-1.25-2.76-1.29Z"/>
  <path class="cls-4" d="M318.95,246.95c0,1.35.02,2.69,0,4.04-.08,3.83-2.53,6.37-6.21,6.45-4.32.11-7.02-2.13-7.2-6.16-.13-2.97,0-5.94-.04-8.92,0-.69.24-.83.88-.86,2.8-.11,2.8-.14,2.8,2.68,0,2.28-.04,4.55.02,6.83.06,2.13,1,3.27,2.68,3.47,1.97.23,3.36-1.04,3.41-3.28.07-2.83.07-5.67,0-8.5-.03-1.02.31-1.22,1.25-1.2,2.41.05,2.41,0,2.41,2.38,0,1.02,0,2.04,0,3.07Z"/>
  <path class="cls-8" d="M224.79,252.48c0,.6-.08,1.22.02,1.81.22,1.29-.38,1.98-1.51,2.4-3.94,1.48-9.11,1.17-11.41-3.06-1.66-3.04-1.65-6.18.32-9.08,1.92-2.84,4.85-3.54,8.08-3.19,1.28.14,2.55.47,3.62,1.28.5.37,1.23.65.49,1.45-.6.65-.83,1.98-2.19,1.1-.96-.62-2.01-.91-3.16-.89-2.28.02-3.66,1.02-4.27,3.21-.44,1.57-.36,3.13.27,4.63.92,2.2,3.7,3.28,5.85,2.31,1.04-.47.45-1.37.53-2.07.09-.79-.61-.55-1-.52-1.57.11-1.16-1.03-1.27-1.89-.14-1.09.6-.9,1.22-.9,1.21,0,2.41.02,3.62-.01.59-.02.84.16.81.78-.04.88-.01,1.76-.01,2.64Z"/>
  <path class="cls-6" d="M165.77,241.53c1.16.07,2.5-.1,3.84.22,2.62.62,4.07,2.3,4.09,4.88.03,2.69-1.5,4.64-4.11,5.19-.72.15-1.47.19-2.21.22-2.14.09-1.85-.37-1.88,1.96,0,.51-.07,1.03.01,1.53.23,1.4-.28,1.83-1.7,1.73-1.97-.13-1.97-.03-1.97-2.02,0-4.13.03-8.27-.02-12.4-.01-.99.15-1.46,1.26-1.33.82.1,1.67.02,2.69.02ZM166.92,244.3c-1.17-.34-1.62.26-1.45,1.59.08.59.09,1.21,0,1.8-.2,1.34.29,1.76,1.64,1.66,1.99-.14,2.98-.94,2.93-2.69-.05-1.62-.94-2.34-3.13-2.35Z"/>
  <path class="cls-2" d="M337.22,249.34c0-2.28,0-4.55,0-6.83,0-.41-.22-1.01.57-.98,2.41.1,4.83-.26,7.22.24,2.67.56,4.1,2.37,4.02,5.04-.08,2.74-1.63,4.59-4.27,5.03-.91.15-1.85.23-2.76.18-.97-.06-1.19.32-1.14,1.2.07,1.06-.01,2.14.03,3.2.02.59-.16.78-.78.82-2.9.21-2.89.23-2.89-2.6,0-1.77,0-3.53,0-5.3ZM342.35,244.3c-.38.32-1.43-.62-1.46.68-.03,1.2,0,2.4,0,3.6,0,.27-.02.53.3.69,1.81.92,4.33-.68,4.24-2.7-.07-1.59-.96-2.27-3.07-2.28Z"/>
  <path class="cls-1" d="M138.42,257.43c-1.42.01-2.76-.31-3.98-1.04-1.49-.89-1.44-.86-.53-2.35.58-.96,1.24-1.02,2.07-.44.86.6,1.79,1,2.85.91.89-.07,1.63-.38,1.78-1.42.14-.99-.32-1.61-1.21-1.93-.7-.25-1.42-.43-2.12-.66-2.65-.9-3.86-2.58-3.57-4.92.3-2.38,2.16-4.08,4.75-4.3,1.57-.13,3.02.29,4.42.98.95.46.96,1.03.44,1.87-.47.76-.79,1.52-1.89.88-.81-.48-1.67-.78-2.65-.69-.81.07-1.45.36-1.65,1.22-.21.92.38,1.37,1.12,1.66.82.32,1.65.61,2.47.91,2.67.99,3.61,2.44,3.28,5.05-.29,2.29-2.18,4.05-4.62,4.28-.32.03-.65,0-.97,0Z"/>
  <path class="cls-6" d="M108.8,250.92c0-1.77-.06-3.53.02-5.3.05-.99-.35-1.19-1.2-1.12-.65.06-1.31-.06-1.95.03-1.15.16-1.32-.35-1.38-1.39-.08-1.35.31-1.69,1.66-1.65,3.25.11,6.51.11,9.76,0,1.28-.04,1.17.63,1.14,1.44-.03.8.27,1.71-1.17,1.61-1.03-.08-2.47-.51-3.04.22-.52.68-.19,2.04-.19,3.1-.01,2.83-.03,5.67.01,8.5.01.78-.21,1.02-1.01,1.03-2.66.04-2.66.07-2.66-2.59,0-1.3,0-2.6,0-3.9Z"/>
  <path class="cls-9" d="M82.89,249.34c0-2.28.03-4.56-.02-6.83-.02-.8.23-.99,1.01-1,2.68-.02,2.68-.05,2.68,2.66,0,3.95-.03,7.9.03,11.85.01.97-.23,1.25-1.21,1.23-2.47-.06-2.47,0-2.47-2.47,0-1.81,0-3.63,0-5.44Z"/>
</svg>